<svg xmlns="http://www.w3.org/2000/svg" width="212" height="30" viewBox="0 0 212 30"><defs><style>.a{fill:#e62255;}.a,.b{fill-rule:evenodd;}.b{fill:#fc0;}.c{fill:#333;}</style></defs><path class="a" d="M212,5.445h-9.621a11.189,11.189,0,0,0,9.616,5.445H212Z"/><path class="b" d="M212,5.445h-9.621A10.628,10.628,0,0,1,200.879,0H212Z"/><path class="c" d="M191.7,17.753a.919.919,0,0,1,.256-.689.963.963,0,0,1,.7-.251h12.251a.857.857,0,0,1,.96.94q.032.376.031.908l-.064,1.316a9.958,9.958,0,0,1-1.951,5.137,11.767,11.767,0,0,1-4.414,3.6A13.808,13.808,0,0,1,193.622,30a12.9,12.9,0,0,1-6.286-1.582,12.354,12.354,0,0,1-4.622-4.338,11.262,11.262,0,0,1,0-11.887,12.225,12.225,0,0,1,4.606-4.338,12.994,12.994,0,0,1,16.283,3.1.965.965,0,0,1,.256.6.876.876,0,0,1-.512.72l-2.719,1.535a1.294,1.294,0,0,1-.544.156,1.108,1.108,0,0,1-.8-.407,9.018,9.018,0,0,0-2.623-2.036,6.6,6.6,0,0,0-3.039-.752,7.418,7.418,0,0,0-3.759,1,7.786,7.786,0,0,0-2.8,2.725,6.992,6.992,0,0,0,0,7.283,7.547,7.547,0,0,0,2.783,2.71,7.22,7.22,0,0,0,3.775,1.034,7.738,7.738,0,0,0,2.911-.579,7.83,7.83,0,0,0,2.495-1.582,4.962,4.962,0,0,0,1.407-2.193h-7.773a.961.961,0,0,1-.7-.251.919.919,0,0,1-.256-.689ZM163.667,28.622a.919.919,0,0,1-.256.689.961.961,0,0,1-.7.251h-3.1a.961.961,0,0,1-.7-.251.919.919,0,0,1-.256-.689V7.2a.559.559,0,0,1,.128-.392.451.451,0,0,1,.352-.141,1.064,1.064,0,0,1,.7.313l14.939,12.937V7.635a.923.923,0,0,1,.256-.689.963.963,0,0,1,.7-.251h3.135a.963.963,0,0,1,.7.251.919.919,0,0,1,.256.689V28.747a1.062,1.062,0,0,1-.16.611.483.483,0,0,1-.416.235.714.714,0,0,1-.512-.219L163.668,16.531Zm-6.955,0a.919.919,0,0,1-.256.689.963.963,0,0,1-.7.251h-3.134a.961.961,0,0,1-.7-.251.919.919,0,0,1-.256-.689V7.6a.919.919,0,0,1,.256-.689.962.962,0,0,1,.7-.251h3.134a.963.963,0,0,1,.7.251.919.919,0,0,1,.256.689Zm-6.571-18.606a.923.923,0,0,1-.256.689.963.963,0,0,1-.7.251h-5.822V28.622a.919.919,0,0,1-.256.689.961.961,0,0,1-.7.251h-3.167a.961.961,0,0,1-.7-.251.923.923,0,0,1-.256-.689V10.955h-5.854a.965.965,0,0,1-.7-.251.923.923,0,0,1-.256-.689V7.6a.923.923,0,0,1,.256-.689.965.965,0,0,1,.7-.251h16.762a.963.963,0,0,1,.7.251.923.923,0,0,1,.256.689Zm-32.674,6.045H127.7a.965.965,0,0,1,.7.251.923.923,0,0,1,.256.689v2.443a.923.923,0,0,1-.256.689.965.965,0,0,1-.7.251H117.467V25.27h11.707a.963.963,0,0,1,.7.251.919.919,0,0,1,.256.689v2.412a.919.919,0,0,1-.256.689.963.963,0,0,1-.7.251h-15.8a.963.963,0,0,1-.7-.251.919.919,0,0,1-.256-.689V7.6a.919.919,0,0,1,.256-.689.963.963,0,0,1,.7-.251h15.8a.963.963,0,0,1,.7.251.919.919,0,0,1,.256.689v2.412a.919.919,0,0,1-.256.689.963.963,0,0,1-.7.251H117.467ZM96.277,28.622a.92.92,0,0,1-.256.689.963.963,0,0,1-.7.251H92.182a.963.963,0,0,1-.7-.251.92.92,0,0,1-.256-.689V7.6a.921.921,0,0,1,.256-.689.963.963,0,0,1,.7-.251h3.135a.963.963,0,0,1,.7.251.92.92,0,0,1,.256.689v8.614l8.637-9.052a1.571,1.571,0,0,1,1.183-.5h3.935a1.044,1.044,0,0,1,.591.141.448.448,0,0,1,.209.392.9.9,0,0,1-.32.627l-8.478,8.551L111.215,28.4a1.038,1.038,0,0,1,.224.6.486.486,0,0,1-.208.407,1.033,1.033,0,0,1-.624.157h-4A1.332,1.332,0,0,1,105.425,29L98.547,19.82l-2.271,2.318ZM81.1,18.129a3.387,3.387,0,0,0,2.415-.955,3.352,3.352,0,0,0,1.008-2.553,4.148,4.148,0,0,0-.816-2.6A3.076,3.076,0,0,0,81.1,10.956H75.726v7.173ZM75.726,28.622a.92.92,0,0,1-.256.689.963.963,0,0,1-.7.251h-3.1a.963.963,0,0,1-.7-.251.92.92,0,0,1-.256-.689V7.6a.921.921,0,0,1,.256-.689.963.963,0,0,1,.7-.251H81.1a9.4,9.4,0,0,1,4.415,1,7.237,7.237,0,0,1,2.975,2.819,8.078,8.078,0,0,1,1.056,4.135,7.847,7.847,0,0,1-1.279,4.416,7.482,7.482,0,0,1-3.487,2.85l.9,1.128q.608.752,1.632,2.052T89.9,28.4a.876.876,0,0,1,.256.6.487.487,0,0,1-.208.407.968.968,0,0,1-.592.157H85.515a1.47,1.47,0,0,1-1.184-.532q-2.431-3.038-5.15-6.609H75.727Zm-15.656-6.8-3.007-5.983-2.975,5.983ZM45.515,29.561a.973.973,0,0,1-.608-.172.545.545,0,0,1-.224-.454,1.194,1.194,0,0,1,.16-.5L56.391,7.165q.288-.5.672-.5a.72.72,0,0,1,.672.5L69.283,28.433a1.2,1.2,0,0,1,.16.5.546.546,0,0,1-.224.454.974.974,0,0,1-.608.172H65.124A1.216,1.216,0,0,1,64,28.872l-1.5-2.819H51.593l-1.44,2.819a1.135,1.135,0,0,1-1.12.689Zm-3.4-22.3a.957.957,0,0,1,.64-.376.453.453,0,0,1,.4.219,1.074,1.074,0,0,1,.144.6V28.622a.92.92,0,0,1-.256.689.963.963,0,0,1-.7.251H39.168a.963.963,0,0,1-.7-.251.92.92,0,0,1-.256-.689V18.629L31.714,25.99a.834.834,0,0,1-.672.376.971.971,0,0,1-.672-.376l-6.494-7.361v9.992a.92.92,0,0,1-.256.689.963.963,0,0,1-.7.251H19.751a.963.963,0,0,1-.7-.251.92.92,0,0,1-.256-.689V7.7a1.071,1.071,0,0,1,.144-.6.453.453,0,0,1,.4-.219.877.877,0,0,1,.64.376L31.043,19.475ZM16.25,25.27a.963.963,0,0,1,.7.251.921.921,0,0,1,.256.689v2.412a.92.92,0,0,1-.256.689.963.963,0,0,1-.7.251H1.215a.961.961,0,0,1-.7-.251.92.92,0,0,1-.256-.689V25.646A1.384,1.384,0,0,1,.8,24.518l3.1-2.474L8.8,18.191a10.472,10.472,0,0,0,2.447-2.412,4.18,4.18,0,0,0,.624-2.255,2.556,2.556,0,0,0-.976-2.177,4,4,0,0,0-2.479-.736q-2.3,0-3.423,2.757a.934.934,0,0,1-.864.689,1.8,1.8,0,0,1-.352-.063L.736,13.273Q0,13.085,0,12.49a.856.856,0,0,1,.064-.376A10.623,10.623,0,0,1,1.647,9.5,9.3,9.3,0,0,1,4.126,7.385a8.265,8.265,0,0,1,4.286-1.1,9.9,9.9,0,0,1,4.638,1.018,7.056,7.056,0,0,1,2.943,2.741,6.736,6.736,0,0,1,.959,3.477,7.347,7.347,0,0,1-1.3,4.119A19.075,19.075,0,0,1,11.8,21.7l-1.312,1.034L9.085,23.8q-.992.815-1.919,1.472Z"/></svg>