<?xml version="1.0" encoding="utf-8"?>
<!-- Generator: Adobe Illustrator 25.0.0, SVG Export Plug-In . SVG Version: 6.00 Build 0)  -->
<svg version="1.1" id="Layer_1" xmlns="http://www.w3.org/2000/svg" xmlns:xlink="http://www.w3.org/1999/xlink" x="0px" y="0px"
	 viewBox="0 0 1024 1024" style="enable-background:new 0 0 1024 1024;" xml:space="preserve">
<style type="text/css">
	.st0{fill:#714DE0;}
</style>
<g>
	<g>
		<path class="st0" d="M0,493.2h23.6c1.4,14.3,12.3,23.4,28.9,23.4c17.8,0,28.3-7.5,28.3-19.6c0-11.3-8.7-17.6-31.5-21.2
			C18.8,471,2.6,458.5,2.6,435c0-24.4,20.2-41,49.3-41c28.9,0,47.9,16.6,50.9,42.4H78.9c-2.4-13.3-12.3-19.8-27.5-19.8
			c-15.5,0-25,6.9-25,18c0,10.9,7.3,16,30.7,19.8c31.3,5.1,47.9,18.6,47.9,42.2c0,26-21.4,42.8-52.5,42.8
			C22,539.4,1.8,521.7,0,493.2z"/>
		<path class="st0" d="M129.2,430.4h22l0.2,13.1c8.3-9.7,20-14.9,33.3-14.9c16.4,0,28.5,6.3,35.3,18.8
			c10.1-12.3,23.6-18.8,39.4-18.8c27.5,0,42.2,17,42.2,48.5v60.4h-22.4v-59.2c0-19.4-7.9-29.3-23.8-29.3
			c-17.6,0-28.7,11.5-28.7,29.3v59.2h-22.4v-59.2c0-19.4-8.1-29.3-24-29.3c-17.4,0-28.7,11.5-28.7,29.3v59.2h-22.4L129.2,430.4
			L129.2,430.4z"/>
		<path class="st0" d="M325.1,483.9c0-32.5,22.4-55.5,53.7-55.5c14.9,0,27.9,5.2,37.1,14.3l0.4-12.3h21.2v107h-21.2l-0.4-12.5
			c-9.3,9.3-22.2,14.5-37.1,14.5C347.1,539.4,325.1,516,325.1,483.9z M381.6,518.4c19.8,0,33.9-14.1,33.9-34.5
			c0-20.4-14.1-34.5-33.9-34.5c-19.6,0-33.7,14.1-33.7,34.5C347.9,504.3,362,518.4,381.6,518.4z"/>
		<path class="st0" d="M470.2,430.4H492l0.4,13.5c7.5-9.9,18-15.1,30.7-15.1c4,0,8.5,0.6,12.9,1.6v20.4c-3.8-0.8-7.7-1.4-11.3-1.4
			c-18.8,0-32.1,12.3-32.1,31.3v56.7h-22.4L470.2,430.4L470.2,430.4z"/>
		<path class="st0" d="M565.8,503.1v-53.9H545v-18.8h20.8V406l22.4-2.4v26.9H616v18.8h-27.9v51.3c0,12.5,5.9,17.6,19.2,17.6
			c3,0,6.5-0.2,10.1-0.8v20.2c-4.8,0.6-9.9,1-13.9,1C578.7,538.4,565.8,527.3,565.8,503.1z"/>
		<path class="st0" d="M669,418.5h-40v-22.4h103.8v22.4h-40v118.9H669V418.5z"/>
		<path class="st0" d="M765.8,388c8.9,0,15.5,6.5,15.5,15.4c0,8.5-6.7,14.9-15.5,14.9s-15.5-6.5-15.5-14.9
			C750.2,394.5,756.9,388,765.8,388z M754.5,430.4h22.4v107h-22.4V430.4z"/>
		<path class="st0" d="M832,525.5v43.6h-22.4V430.4h21.2l0.4,12.7c9.3-9.3,22.4-14.7,37.5-14.7c31.3,0,53.5,23.2,53.5,55.5
			c0,31.9-21.8,55.5-53.5,55.5C854,539.4,841.3,534.4,832,525.5z M865.7,518.4c19.8,0,33.9-14.1,33.9-34.5
			c0-20.4-14.1-34.5-33.9-34.5c-20,0-34.1,14.1-34.1,34.5S845.7,518.4,865.7,518.4z"/>
		<path class="st0" d="M935.4,524.3l55.5-73.9h-51.7v-20h83.4v12.3l-56.1,74.5h57.5v20.2h-88.6V524.3z"/>
	</g>
</g>
</svg>
